<?xml version="1.0" encoding="UTF-8"?>
<svg width="16px" height="16px" viewBox="0 0 16 16" version="1.1" xmlns="http://www.w3.org/2000/svg" xmlns:xlink="http://www.w3.org/1999/xlink">
    <!-- Generator: Sketch 42 (36781) - http://www.bohemiancoding.com/sketch -->
    <title>Group Copy 6</title>
    <desc>Created with Sketch.</desc>
    <defs></defs>
    <g id="Page-1" stroke="none" stroke-width="1" fill="none" fill-rule="evenodd">
        <g id="Group-Copy-6">
            <circle id="Oval-5" fill="#D8D8D8" cx="8" cy="8" r="8"></circle>
            <path d="M7.52006131,7.47603934 L3.50964952,7.47603934 C3.22765279,7.47603934 3,7.69989696 3,7.97603934 C3,8.24944632 3.22817786,8.47603934 3.50964952,8.47603934 L7.52006131,8.47603934 L7.52006131,12.4903505 C7.52006131,12.7723472 7.74391894,13 8.02006131,13 C8.28812772,13 8.52006131,12.7718221 8.52006131,12.4903505 L8.52006131,8.47603934 L12.4903505,8.47603934 C12.7723472,8.47603934 13,8.25218171 13,7.97603934 C13,7.70797293 12.7718221,7.47603934 12.4903505,7.47603934 L8.52006131,7.47603934 L8.52006131,3.50964952 C8.52006131,3.22765279 8.29620369,3 8.02006131,3 C7.75199491,3 7.52006131,3.22817786 7.52006131,3.50964952 L7.52006131,7.47603934 Z" id="Combined-Shape" fill="#222222" transform="translate(8.000000, 8.000000) rotate(45.000000) translate(-8.000000, -8.000000) "></path>
        </g>
    </g>
</svg>